<?xml version="1.0" encoding="UTF-8"?>
<!DOCTYPE svg PUBLIC "-//W3C//DTD SVG 1.1//EN" "http://www.w3.org/Graphics/SVG/1.1/DTD/svg11.dtd">
<!-- Creator: CorelDRAW 2026 -->
<svg xmlns="http://www.w3.org/2000/svg" xml:space="preserve" width="2in" height="2in" version="1.1" style="shape-rendering:geometricPrecision; text-rendering:geometricPrecision; image-rendering:optimizeQuality; fill-rule:evenodd; clip-rule:evenodd"
viewBox="0 0 2000 2000"
 xmlns:xlink="http://www.w3.org/1999/xlink"
 xmlns:xodm="http://www.corel.com/coreldraw/odm/2003">
 <defs>
  <style type="text/css">
   <![CDATA[
    .fil0 {fill:none}
    .fil1 {fill:url(#id0)}
    .fil3 {fill:url(#id1)}
    .fil2 {fill:url(#id2)}
    .fil5 {fill:url(#id3)}
    .fil4 {fill:url(#id4)}
   ]]>
  </style>
  <linearGradient id="id0" gradientUnits="userSpaceOnUse" x1="1173.27" y1="583.11" x2="443.91" y2="1416.89">
   <stop offset="0" style="stop-opacity:1; stop-color:#EB6323"/>
   <stop offset="1" style="stop-opacity:1; stop-color:#DE3B25"/>
  </linearGradient>
  <linearGradient id="id1" gradientUnits="userSpaceOnUse" xlink:href="#id0" x1="1546.91" y1="836.17" x2="1452.32" y2="957.43">
  </linearGradient>
  <linearGradient id="id2" gradientUnits="userSpaceOnUse" xlink:href="#id0" x1="1550.25" y1="1162.01" x2="1425.59" y2="1321.81">
  </linearGradient>
  <linearGradient id="id3" gradientUnits="userSpaceOnUse" xlink:href="#id0" x1="1646.43" y1="710.56" x2="1592.37" y2="779.87">
  </linearGradient>
  <linearGradient id="id4" gradientUnits="userSpaceOnUse" xlink:href="#id0" x1="1685.83" y1="1003.89" x2="1612.28" y2="1098.18">
  </linearGradient>
 </defs>
 <g id="Layer_x0020_1">
  <metadata id="CorelCorpID_0Corel-Layer"/>
  <g id="_2247241834224">
   <rect class="fil0" width="2000" height="2000"/>
   <g>
    <path class="fil1" d="M1251.26 1015.89c5.59,-0.13 11.02,4.17 11.02,10.71l0 3.44 0 13.65 0 13.64 0 13.65 0 13.64 0 13.65 0 13.65 0 13.64 0 13.65 0 13.64 0 13.65 0 13.64 0 13.65 0 13.65 0 13.65 0 13.64 0 13.65 0 13.64 0 13.65 0 13.65 0 13.65 0 13.64 0 13.65 0 13.64 0 13.65 0 13.65 0 13.65 0 13.64 0 13.65 0 13.63 0 3.01c-1.61,1.47 -3.24,2.94 -4.87,4.39 -2.09,1.86 -4.2,3.71 -6.31,5.54 -2.11,1.83 -4.24,3.65 -6.39,5.45 -2.14,1.8 -4.29,3.59 -6.45,5.35 -2.17,1.77 -4.35,3.53 -6.54,5.27 -2.19,1.74 -4.39,3.45 -6.61,5.16 -2.22,1.7 -4.44,3.4 -6.68,5.07 -2.24,1.67 -4.48,3.34 -6.75,4.98 -2.27,1.65 -4.55,3.27 -6.84,4.88 -2.29,1.61 -4.59,3.2 -6.9,4.78 -2.31,1.58 -4.64,3.15 -6.98,4.69 -2.34,1.55 -4.69,3.08 -7.05,4.6 -2.37,1.51 -4.74,3.01 -7.13,4.49 -2.39,1.48 -4.79,2.95 -7.21,4.4 -2.41,1.45 -4.84,2.89 -7.28,4.3 -2.44,1.42 -4.9,2.81 -7.36,4.2 -2.46,1.38 -4.94,2.75 -7.43,4.1 -2.5,1.35 -5,2.69 -7.52,4.01 -2.52,1.32 -5.05,2.62 -7.59,3.9 -2.54,1.28 -5.11,2.55 -7.67,3.8 -2.57,1.25 -5.16,2.49 -7.75,3.7 -2.6,1.22 -5.2,2.42 -7.82,3.6 -2.63,1.18 -5.28,2.34 -7.93,3.48 -2.65,1.15 -5.31,2.27 -7.99,3.38 -2.68,1.11 -5.37,2.21 -8.08,3.28 -66.15,26.23 -138.27,40.66 -213.76,40.66 -320.45,0 -580.23,-259.78 -580.23,-580.22 0,-126.58 40.56,-243.67 109.35,-339.05 1.7,-2.36 3.41,-4.72 5.15,-7.05 1.72,-2.32 3.49,-4.61 5.25,-6.9 1.76,-2.29 3.52,-4.58 5.31,-6.84 1.78,-2.25 3.59,-4.48 5.4,-6.71 1.81,-2.22 3.64,-4.41 5.48,-6.6 1.84,-2.19 3.66,-4.39 5.53,-6.54 1.87,-2.15 3.77,-4.26 5.67,-6.39 1.89,-2.11 3.78,-4.23 5.7,-6.31 1.91,-2.09 3.84,-4.16 5.79,-6.22 1.94,-2.05 3.91,-4.08 5.88,-6.1 1.96,-2.02 3.93,-4.05 5.93,-6.04 1.99,-1.99 4.02,-3.94 6.04,-5.9 2.02,-1.96 4.05,-3.9 6.09,-5.83 2.04,-1.93 4.09,-3.84 6.16,-5.74 2.07,-1.89 4.17,-3.75 6.26,-5.61 2.09,-1.86 4.18,-3.73 6.3,-5.56 2.12,-1.83 4.27,-3.63 6.41,-5.42 2.15,-1.8 4.3,-3.58 6.46,-5.34 2.17,-1.77 4.34,-3.53 6.54,-5.26 2.19,-1.73 4.42,-3.44 6.63,-5.14 2.22,-1.7 4.43,-3.41 6.67,-5.08 2.24,-1.67 4.51,-3.31 6.78,-4.95 2.27,-1.64 4.54,-3.26 6.83,-4.87 2.29,-1.61 4.59,-3.21 6.91,-4.79 2.31,-1.57 4.66,-3.11 7,-4.65 2.34,-1.54 4.68,-3.09 7.05,-4.6 2.37,-1.51 4.76,-2.98 7.15,-4.46 2.4,-1.48 4.8,-2.94 7.22,-4.39 2.42,-1.45 4.83,-2.89 7.28,-4.3 2.44,-1.41 4.92,-2.79 7.39,-4.17 2.47,-1.38 4.94,-2.77 7.43,-4.11 2.5,-1.35 5.02,-2.66 7.54,-3.97 2.52,-1.31 5.06,-2.61 7.6,-3.89 2.55,-1.28 5.09,-2.57 7.67,-3.81 2.58,-1.25 5.18,-2.45 7.78,-3.66 2.6,-1.21 5.21,-2.42 7.83,-3.6 2.63,-1.18 5.28,-2.33 7.93,-3.47 2.66,-1.14 5.33,-2.26 8.02,-3.36 2.69,-1.1 5.36,-2.23 8.06,-3.29 2.72,-1.07 5.46,-2.09 8.2,-3.12 2.74,-1.04 5.49,-2.06 8.26,-3.05 2.77,-1 5.55,-1.98 8.34,-2.94 2.8,-0.96 5.63,-1.88 8.46,-2.8 2.83,-0.92 5.66,-1.84 8.51,-2.72 2.87,-0.88 5.76,-1.73 8.64,-2.57 2.89,-0.84 5.8,-1.65 8.72,-2.45 2.93,-0.8 5.84,-1.62 8.78,-2.37 2.96,-0.76 5.95,-1.46 8.94,-2.18 2.99,-0.72 5.99,-1.42 9,-2.09 3.02,-0.68 6.05,-1.35 9.09,-1.98 3.06,-0.63 6.15,-1.21 9.23,-1.79 3.1,-0.59 6.2,-1.16 9.32,-1.7 3.13,-0.54 6.26,-1.07 9.41,-1.56 3.18,-0.49 6.37,-0.93 9.57,-1.37 3.2,-0.44 6.41,-0.88 9.64,-1.27 3.25,-0.39 6.5,-0.78 9.77,-1.12 3.29,-0.34 6.6,-0.63 9.91,-0.92 3.33,-0.29 6.67,-0.56 10.02,-0.8 3.37,-0.23 6.74,-0.46 10.13,-0.64 3.43,-0.18 6.87,-0.3 10.31,-0.42 3.47,-0.12 6.94,-0.2 10.42,-0.27 3.37,-0.06 6.73,-0.13 10.11,-0.13l0.43 0c3.58,0 7.15,0.05 10.72,0.11 3.64,0.07 7.26,0.18 10.88,0.31 3.68,0.14 7.35,0.3 11.02,0.51 3.75,0.21 7.48,0.46 11.21,0.74 3.81,0.29 7.61,0.62 11.39,0.98 3.87,0.37 7.73,0.77 11.58,1.21 3.94,0.46 7.87,0.96 11.79,1.49 4.02,0.55 8.02,1.13 12.01,1.76 4.1,0.65 8.18,1.34 12.24,2.07 4.18,0.76 8.35,1.55 12.49,2.39 4.28,0.87 8.53,1.78 12.77,2.74 4.37,0.99 8.72,2.02 13.05,3.11 4.49,1.13 8.95,2.32 13.4,3.55 4.61,1.28 9.19,2.61 13.74,4 4.74,1.44 9.44,2.93 14.13,4.48 4.89,1.63 9.74,3.31 14.57,5.06 5.06,1.83 10.08,3.73 15.07,5.7 5.26,2.07 10.48,4.22 15.66,6.44 5.48,2.35 10.93,4.79 16.32,7.31 5.76,2.68 11.47,5.46 17.13,8.32 6.09,3.09 12.12,6.28 18.09,9.57 6.51,3.59 12.95,7.31 19.31,11.14 7.1,4.28 14.09,8.72 20.99,13.29 7.93,5.26 15.72,10.71 23.37,16.34 9.3,6.85 18.39,13.95 27.25,21.33 12.48,10.38 24.52,21.28 36.08,32.66 17.04,16.77 33.06,34.59 47.95,53.34l-3.53 3.67 -5.87 6.11 -5.87 6.11 -5.87 6.11 -5.87 6.11 -5.87 6.11 -5.87 6.11 -5.88 6.12 -5.87 6.11 -5.87 6.11 -5.87 6.11 -5.87 6.11 -5.87 6.11 -5.87 6.11 -5.87 6.11 -5.87 6.11 -5.87 6.11 -5.87 6.11 -5.87 6.11 -5.87 6.11 -5.87 6.11 -5.87 6.11 -5.87 6.11 -5.87 6.11 -5.87 6.11 -5.87 6.11 -5.87 6.11 -5.87 6.11 -5.87 6.11 -5.87 6.11 -5.87 6.11 -5.87 6.11 -5.87 6.11 -5.87 6.11 -5.87 6.11 -5.88 6.11 -5.87 6.11 -5.87 6.11 -5.87 6.11 -5.87 6.11 -5.87 6.11 -5.87 6.11 -5.87 6.11 -5.87 6.11 -5.87 6.12 -5.87 6.11 -5.87 6.11 -5.87 6.11 -5.17 5.37c-0.23,0.25 -0.47,0.5 -0.7,0.74 -2.06,2.07 -4.44,3.63 -6.99,4.67 -3,1.23 -6.22,1.76 -9.41,1.57 -5.38,-0.31 -10.67,-2.64 -14.61,-6.98l-7.75 -8.07 -56.2 -58.47 -56.19 -58.47 -56.17 -58.44 -56.2 -58.48 -56.18 -58.46 -13.06 -13.58c-6.3,-6.31 -13.3,-11.74 -20.82,-16.24 -5.44,-3.25 -11.15,-6.01 -17.06,-8.24 -4.53,-1.71 -9.18,-3.12 -13.91,-4.21 -4.03,-0.92 -8.11,-1.61 -12.24,-2.07 -3.68,-0.41 -7.4,-0.62 -11.14,-0.64l-0.55 -0.01 -0.02 0c-3.21,0 -6.36,0.29 -9.42,0.82 -3.03,0.54 -5.98,1.32 -8.81,2.34 -2.73,0.98 -5.36,2.17 -7.86,3.56 -2.46,1.37 -4.81,2.91 -7.02,4.63 -2.22,1.72 -4.3,3.61 -6.22,5.66 -1.97,2.09 -3.78,4.34 -5.39,6.72 -1.7,2.5 -3.19,5.15 -4.46,7.93 -1.37,3.01 -2.47,6.17 -3.27,9.44 -0.92,3.75 -1.46,7.66 -1.55,11.67l-0.01 1.24 0 12.37 0 13.65 0 13.64 0 13.65 0 13.64 0 13.65 0 13.64 0 13.65 0 13.65 0 13.64 0 13.64 0 13.65 0 13.64 0 13.65 0 13.64 0 13.65 0 13.64 0 13.66 0 359.03c0,116.2 94.2,193.61 210.42,193.61l0 -282.61 0 -13.65 0 -13.64 0 -13.65 0 -13.64 0 -13.65 0 -13.64 0 -13.65 0 -13.65 0 -13.64 0 -9.6c0,-1.2 0.19,-2.33 0.52,-3.37 0.94,-2.93 3.09,-5.14 5.69,-6.34 3.79,-1.74 8.56,-1.33 12.05,2.16l2.6 2.99 101.57 116.7 82.13 94.36c2.18,2.51 4.58,4.7 7.15,6.56 4.95,3.61 10.51,6.02 16.27,7.22 3.71,0.78 7.51,1.06 11.29,0.85 3.17,-0.18 6.33,-0.7 9.4,-1.59 2.78,-0.8 5.5,-1.88 8.09,-3.25 2.46,-1.29 4.81,-2.83 7.02,-4.64 1.89,-1.54 3.67,-3.25 5.33,-5.16l0.68 -0.78 5.61 -6.45 5.61 -6.44 5.61 -6.44 5.61 -6.44 5.61 -6.45 5.61 -6.44 5.61 -6.45 5.61 -6.45 5.61 -6.44 5.61 -6.45 5.61 -6.45 5.61 -6.44 5.61 -6.45 5.61 -6.44 5.61 -6.44 5.61 -6.45 5.61 -6.44 5.61 -6.44 5.61 -6.45 5.6 -6.44 5.61 -6.45 5.61 -6.44 5.61 -6.45 5.61 -6.44 5.61 -6.45 5.61 -6.44 5.61 -6.44 5.61 -6.44 5.61 -6.45 5.61 -6.44 5.61 -6.44 5.61 -6.45 5.61 -6.44 0.49 -0.56c2.11,-2.11 4.69,-3.1 7.25,-3.16z"/>
    <path class="fil2" d="M1577.82 1148.45c3.32,2.85 6.07,6.35 8.03,10.3 2.18,4.38 3.4,9.32 3.4,14.54l0 3.47 0 13.65 0 13.64 0 13.65 0 13.64 0 13.65 0 13.64 0 13.65 0 13.64 0 13.64 0 10.95c0,0.86 -0.04,1.72 -0.1,2.56 -0.28,3.66 -1.17,7.15 -2.56,10.37 -1.19,2.78 -2.76,5.35 -4.65,7.67 -1.78,2.19 -3.83,4.15 -6.11,5.81 -2.28,1.67 -4.78,3.05 -7.44,4.08 -2.83,1.1 -5.85,1.82 -9,2.09 -0.94,0.08 -1.9,0.13 -2.86,0.13l-7.67 0 -10.64 0 -10.63 0 -10.64 0 -10.63 0 -10.63 0 -10.63 0 -10.63 0 -10.63 0 -10.63 0 -10.63 0 -10.64 0 -10.63 0 -1.96 0c-3.43,0 -6.74,-0.53 -9.85,-1.51 -12.67,-3.99 -22.01,-15.49 -22.81,-29.28 -0.04,-0.64 -0.06,-1.29 -0.06,-1.94l0 -11.79 0 -13.64 0 -13.65 0 -13.65 0 -13.65 0 -13.64 0 -13.66 0 -13.64 0 -13.65 0 -13.64 0 -2.63c0,-3.23 0.47,-6.35 1.34,-9.29 0.91,-3.07 2.25,-5.94 3.96,-8.56 1.57,-2.41 3.44,-4.59 5.57,-6.5 2.08,-1.87 4.41,-3.47 6.91,-4.76 2.6,-1.33 5.4,-2.33 8.35,-2.93 2.13,-0.44 4.34,-0.67 6.59,-0.67l3.52 0 10.64 0 10.63 0 10.64 0 10.63 0 10.63 0 10.63 0 10.63 0 10.63 0 10.64 0 10.63 0 10.63 0 10.64 0 6.11 0c1.63,0 3.23,0.12 4.8,0.35 6.24,0.92 11.91,3.59 16.49,7.52z"/>
    <path class="fil3" d="M1561.18 823.59c7.02,3.88 12.29,10.51 14.37,18.44 0.63,2.41 0.97,4.93 0.97,7.54l0 7.34 0 13.65 0 13.64 0 13.65 0 13.65 0 13.64 0 13.66 0 5.24c0,2.5 -0.31,4.93 -0.89,7.25 -0.79,3.15 -2.09,6.11 -3.8,8.77 -1.55,2.41 -3.44,4.58 -5.61,6.45 -2.12,1.83 -4.51,3.37 -7.09,4.55 -2.72,1.23 -5.65,2.07 -8.73,2.44 -1.16,0.14 -2.35,0.21 -3.55,0.21l-6.92 0 -10.63 0 -10.63 0 -10.63 0 -10.63 0 -10.63 0 -10.64 0 -10.63 0 -10.63 0 -2.48 0c-3.26,0 -6.39,-0.52 -9.33,-1.5 -11.16,-3.7 -19.38,-13.83 -20.26,-26 -0.05,-0.72 -0.08,-1.44 -0.08,-2.17l0 -11.59 0 -13.64 0 -13.65 0 -13.65 0 -13.64 0 -13.65 0 -13.64 0 -1.01c0,-3.62 0.65,-7.08 1.83,-10.29 1.07,-2.89 2.57,-5.56 4.44,-7.95 1.74,-2.22 3.79,-4.2 6.08,-5.85 2.3,-1.65 4.84,-2.98 7.56,-3.93 2.94,-1.02 6.08,-1.59 9.36,-1.64l0.4 -0 10.23 0 10.63 0 10.63 0 10.63 0 10.63 0 10.63 0 10.64 0 10.63 0 9.81 0 0.84 0.01c4.88,0.13 9.47,1.45 13.49,3.67z"/>
    <path class="fil4" d="M1690.93 991.46c10.12,1.45 17.91,10.15 17.91,20.68l0 2.31 0 13.64 0 13.65 0 13.64 0 13.65 0 13.64 0 7.26c0,1.89 -0.25,3.72 -0.72,5.46 -0.82,3.04 -2.31,5.8 -4.3,8.13 -1.83,2.13 -4.07,3.89 -6.62,5.15 -2.7,1.33 -5.74,2.11 -8.95,2.15l-0.31 0 -10.33 0 -10.63 0 -10.63 0 -10.63 0 -10.63 0 -10.63 0 -10.64 0 -3.66 0c-2.95,0 -5.75,-0.61 -8.3,-1.72 -6.42,-2.78 -11.17,-8.69 -12.33,-15.81 -0.18,-1.09 -0.27,-2.22 -0.27,-3.37l0 -10.62 0 -13.66 0 -13.64 0 -13.65 0 -13.65 0 -12.57c0,-0.35 0.01,-0.69 0.03,-1.03 0.17,-3.58 1.25,-6.92 3,-9.8 1.48,-2.45 3.46,-4.56 5.79,-6.22 2.34,-1.66 5.04,-2.85 7.95,-3.43 1.33,-0.27 2.72,-0.41 4.13,-0.41l6.18 0 10.64 0 10.63 0 10.64 0 10.63 0 10.63 0 10.63 0 7.81 0c1.02,0 2.01,0.07 2.99,0.21z"/>
    <path class="fil5" d="M1657.72 705.17c1.63,1.4 2.98,3.12 3.94,5.06 1.08,2.17 1.69,4.61 1.69,7.19l0 8.62 0 13.65 0 13.64 0 13.65 0 6.02c0,2.16 -0.43,4.22 -1.19,6.1 -1.11,2.74 -2.96,5.11 -5.3,6.85 -2.32,1.74 -5.13,2.87 -8.18,3.15 -0.5,0.05 -1,0.07 -1.51,0.07l-9.07 0 -10.63 0 -10.63 0 -10.63 0 -10.63 0 -3.97 0c-3.15,0 -6.1,-0.91 -8.59,-2.47 -3.18,-2 -5.61,-5.08 -6.8,-8.72 -0.51,-1.57 -0.78,-3.24 -0.78,-4.98l0 -9.67 0 -13.64 0 -13.64 0 -13.65 0 -4.96c0,-2.42 0.53,-4.71 1.48,-6.78 1.22,-2.65 3.15,-4.91 5.53,-6.55 2.42,-1.67 5.31,-2.69 8.44,-2.82l0.71 -0.02 9.9 0 10.64 0 10.63 0 10.63 0 10.63 0 3.14 0c4.02,0 7.71,1.48 10.54,3.91zm-28.48 58.97l0 0 0 0 -0 0z"/>
   </g>
  </g>
 </g>
</svg>
